<?xml version="1.0" encoding="iso-8859-1"?>
<!-- Uploaded to: SVG Repo, www.svgrepo.com, Generator: SVG Repo Mixer Tools -->
<svg height="800px" width="800px" version="1.1" id="Layer_1" xmlns="http://www.w3.org/2000/svg" xmlns:xlink="http://www.w3.org/1999/xlink" 
	 viewBox="0 0 512 512" xml:space="preserve">
<polygon style="fill:#BEA591;" points="472,212 480,156 456,164 464,116 440,124 440,92 408,100 400,68 376,84 368,44 336,68 
	328,28 296,60 280,20 256,52 232,20 216,60 184,28 176,68 144,44 136,84 112,68 104,100 72,92 72,124 48,116 56,164 32,156 40,212 
	"/>
<path style="fill:#FFEBD2;" d="M504,292h-40c0,0,32-55,32-80h-48l-56.094-13.825C400.667,184,408,164,408,164s-23.667,4.667-47,8
	l-1-32c-17.333,20.333-30.646,31.851-45.333,43.333c-1.667-8,0-21.333-2.667-25.333c-0.37-0.555-56,38-56,54
	c0-16-55.63-56.555-56-56c-2.667,4-1,20.336-2.667,28.336c-14.687-11.483-28-24.003-45.333-44.336v32c-24,1.667-48-8-48-8
	s7.333,20,16.094,34.175L64,212H16c0,25,24,80,24,80H8l24,32l-16,24c0,0,17,19.5,48,24l-24,24c61,1.5,158.5,96,216,96
	s155-92.5,216-96l-24-24c31-4.5,48-24,48-24l-16-16L504,292z"/>
<path style="fill:#FFD2AF;" d="M256,356c-56,0-96,42.947-96,42.947s24,64.421,96,93.053c72-28.632,96-93.053,96-93.053
	S312,356,256,356z"/>
<g>
	<ellipse style="fill:#9F8976;" cx="256" cy="464" rx="32" ry="28"/>
	<path style="fill:#9F8976;" d="M88,250c0-28.91,8-30,8-30l32,8v-24c-21.683-21.683-64-16-64-16s-7.258,25.131,24,63V250z"/>
	<path style="fill:#9F8976;" d="M423,254c0-24.145-9-33-9-33l-31,7l1-25c18.108-18.108,64-15,64-15s1.738,33.372-24,66H423z"/>
</g>
<path d="M168,308c-8.822,0-16,7.178-16,16s7.178,16,16,16s16-7.178,16-16S176.822,308,168,308z"/>
<path d="M344,308c-8.822,0-16,7.178-16,16s7.178,16,16,16s16-7.178,16-16S352.822,308,344,308z"/>
<path d="M510.961,288.059c-1.42-2.508-4.079-4.059-6.961-4.059h-25.389c9.98-16.415,25.389-44.859,25.389-64
	c0-7.327-7.13-8.664-14.026-9.956c-2.536-0.476-5.679-1.008-9.387-1.589l7.332-51.324c0.392-2.745-0.665-5.497-2.793-7.273
	s-5.025-2.325-7.656-1.448l-11.395,3.798l5.815-34.894c0.461-2.767-0.561-5.574-2.694-7.397c-2.133-1.823-5.065-2.396-7.727-1.507
	L448,112.9V92c0-2.463-1.135-4.79-3.077-6.306s-4.474-2.052-6.864-1.456l-24.239,6.06l-6.06-24.239
	c-0.631-2.524-2.45-4.583-4.876-5.521c-2.427-0.938-5.158-0.637-7.322,0.806l-14.061,9.374l-5.657-28.286
	c-0.539-2.694-2.423-4.924-4.989-5.904c-2.567-0.98-5.458-0.575-7.655,1.073l-21.845,16.384l-5.51-27.553
	c-0.579-2.893-2.703-5.233-5.526-6.088c-2.825-0.855-5.889-0.086-7.975,2l-23.421,23.421L287.429,17.03
	c-1.074-2.685-3.512-4.581-6.379-4.96c-2.867-0.378-5.715,0.818-7.449,3.131L256,38.667L238.4,15.2
	c-1.735-2.313-4.581-3.51-7.449-3.131c-2.867,0.379-5.305,2.275-6.379,4.96l-11.494,28.735l-23.421-23.421
	c-2.086-2.086-5.152-2.855-7.975-2c-2.824,0.855-4.948,3.195-5.526,6.088l-5.51,27.553L148.8,37.6
	c-2.198-1.648-5.087-2.055-7.655-1.073c-2.566,0.98-4.45,3.21-4.989,5.904l-5.657,28.286l-14.061-9.374
	c-2.165-1.443-4.896-1.742-7.322-0.806c-2.427,0.938-4.246,2.998-4.876,5.521l-6.06,24.239l-24.239-6.06
	c-2.391-0.596-4.922-0.06-6.864,1.456C65.135,87.21,64,89.537,64,92v20.9l-13.47-4.49c-2.663-0.888-5.595-0.315-7.727,1.507
	c-2.133,1.823-3.156,4.63-2.694,7.397l5.815,34.894l-11.395-3.798c-2.632-0.877-5.527-0.329-7.656,1.448
	c-2.129,1.776-3.186,4.528-2.793,7.273l7.332,51.324c-3.708,0.581-6.851,1.113-9.387,1.589C15.13,211.336,8,212.673,8,220
	c0,19.141,15.409,47.585,25.389,64H8c-3.03,0-5.8,1.712-7.155,4.422s-1.063,5.954,0.755,8.377l20.604,27.472l-12.86,19.291
	c-2.002,3.003-1.746,6.974,0.626,9.694c0.652,0.748,13.928,15.702,38.154,23.306l-13.78,13.78c-2.288,2.288-2.973,5.729-1.734,8.718
	c1.239,2.989,4.154,4.94,7.39,4.94c25.898,0,65.078,23.656,102.967,46.533c41.195,24.873,80.151,48.383,110.938,49.417
	c0.694,0.033,1.392,0.05,2.095,0.05c0.703,0,1.401-0.017,2.095-0.05c30.787-1.034,69.743-24.544,110.938-49.417
	C406.922,427.656,446.102,404,472,404c3.236,0,6.153-1.949,7.391-4.938s0.554-6.43-1.734-8.718l-13.78-13.78
	c24.226-7.604,37.502-22.558,38.154-23.306c2.764-3.17,2.601-7.939-0.374-10.914l-11.583-11.583l20.786-34.644
	C512.343,293.645,512.382,290.566,510.961,288.059z M53.47,171.589c2.661,0.887,5.594,0.315,7.727-1.507
	c2.133-1.823,3.156-4.63,2.694-7.396l-5.815-34.894l11.395,3.797c2.439,0.813,5.121,0.405,7.208-1.1
	C78.764,128.986,80,126.572,80,124v-21.754l22.06,5.515c4.287,1.07,8.63-1.535,9.702-5.821l5.247-20.987l14.555,9.703
	c2.22,1.48,5.034,1.755,7.499,0.735c2.466-1.022,4.26-3.206,4.783-5.823l5.51-27.553L171.2,74.4
	c2.198,1.647,5.087,2.054,7.655,1.073c2.566-0.98,4.45-3.21,4.989-5.905l5.068-25.342l21.43,21.431
	c1.901,1.901,4.63,2.721,7.265,2.179c2.634-0.541,4.821-2.369,5.819-4.865l10.713-26.783L249.6,56.8c1.511,2.015,3.882,3.2,6.4,3.2
	c2.518,0,4.889-1.186,6.4-3.2l15.459-20.612l10.713,26.783c0.999,2.497,3.185,4.325,5.819,4.865
	c2.633,0.541,5.364-0.278,7.265-2.179l21.43-21.431l5.068,25.342c0.539,2.694,2.423,4.924,4.989,5.905
	c2.568,0.98,5.458,0.575,7.655-1.073l21.845-16.384l5.51,27.553c0.523,2.617,2.317,4.801,4.783,5.823
	c2.465,1.02,5.278,0.746,7.499-0.735l14.555-9.703l5.247,20.987c1.071,4.286,5.413,6.889,9.702,5.821l22.06-5.515V124
	c0,2.572,1.236,4.986,3.322,6.49c2.087,1.504,4.768,1.913,7.208,1.1l11.395-3.797l-5.815,34.894
	c-0.461,2.767,0.561,5.574,2.694,7.396c2.133,1.822,5.064,2.395,7.727,1.507l11.72-3.907l-5.495,38.462
	c-3.89-0.536-7.454-1.009-10.208-1.369C455.957,195.443,456,188.715,456,188c0-4.128-3.141-7.578-7.25-7.965
	c-1.156-0.108-18.375-1.621-37.017,2.367c3.738-9.598,4.226-17.422,4.256-17.975c0.142-2.65-1.041-5.197-3.155-6.801
	c-2.114-1.604-4.887-2.053-7.401-1.204c-6.795,2.301-24.564,7.394-37.433,7.924V140c0-3.211-1.92-6.112-4.877-7.365
	c-2.958-1.254-6.376-0.617-8.685,1.615c-11.489,11.112-23.086,21.583-34.634,31.276C319.93,163.177,320,160.679,320,158
	c0-2.122-0.849-4.161-2.349-5.661s-3.542-2.347-5.663-2.347c-2.537,0-3.139,0-13.83,7.723c-4.722,3.411-11.959,8.813-19.626,15.177
	c-10.834,8.991-17.88,16.02-22.443,21.633c-4.542-5.777-11.602-13.085-22.513-22.529c-7.661-6.63-14.891-12.284-19.607-15.859
	c-10.447-7.919-11.201-8.145-13.958-8.145c-2.122,0-4.162,0.847-5.663,2.347c-1.5,1.5-2.349,3.54-2.349,5.661
	c0,3.96-0.679,7.941-1.378,11.808c-4.503-4.338-9.039-9.064-13.934-14.167c-5.567-5.803-11.878-12.38-19.125-19.39
	c-2.308-2.232-5.728-2.87-8.685-1.615C145.92,133.888,144,136.789,144,140v24.347c-12.868-0.532-30.637-5.624-37.431-7.923
	c-2.513-0.852-5.286-0.403-7.402,1.201c-2.115,1.603-3.297,4.152-3.156,6.803c0.03,0.553,0.518,8.377,4.256,17.975
	c-18.642-3.988-35.862-2.476-37.017-2.367C59.141,180.422,56,183.872,56,188c0,0.715,0.043,7.443,1.452,16.775
	c-2.753,0.36-6.317,0.833-10.208,1.369l-5.495-38.462L53.47,171.589z M439.531,195.682c-0.871,9.054-3.353,24.475-10.42,37.24
	c-2.655-10.506-5.873-16.369-6.134-16.836c-1.439-2.565-4.133-4.086-6.976-4.086c-0.644,0-1.295,0.077-1.941,0.239L392,217.754
	v-10.049c1.127-0.864,2.313-1.662,3.541-2.409c0.292-0.149,0.575-0.32,0.851-0.508C410.157,196.826,429.097,195.642,439.531,195.682
	z M115.619,204.794c0.267,0.182,0.542,0.347,0.823,0.491c1.233,0.75,2.426,1.551,3.558,2.419v10.049l-22.06-5.515
	c-3.5-0.876-7.152,0.702-8.917,3.847c-0.262,0.467-3.479,6.33-6.134,16.836c-7.067-12.767-9.55-28.189-10.42-37.24
	C82.9,195.657,101.854,196.831,115.619,204.794z M257.447,483.96c-0.483,0.015-0.972,0.04-1.447,0.04s-0.964-0.024-1.447-0.04
	C241.991,483.334,232,474.623,232,464c0-11.028,10.767-20,24-20s24,8.972,24,20C280,474.623,270.009,483.334,257.447,483.96z
	 M474.343,337.657l10.135,10.135c-6.727,5.437-19.506,13.66-37.628,16.291c-2.996,0.435-5.489,2.523-6.443,5.396
	c-0.954,2.873-0.205,6.038,1.936,8.179l12.503,12.502c-27.366,6.393-59.947,26.066-94.083,46.676
	c-22.588,13.638-45.626,27.544-66.195,36.689c0.927-3.036,1.432-6.228,1.432-9.525c0-19.851-17.944-36-40-36s-40,16.149-40,36
	c0,3.297,0.505,6.489,1.432,9.525c-20.569-9.145-43.606-23.051-66.195-36.689c-34.136-20.61-66.717-40.283-94.083-46.676
	l12.503-12.502c2.141-2.141,2.89-5.306,1.936-8.179s-3.447-4.96-6.443-5.396c-19.031-2.763-32.334-11.878-38.75-17.261
	l12.256-18.384c1.882-2.822,1.779-6.524-0.256-9.237L24,300h24c2.964,0,5.686-1.639,7.072-4.26c1.386-2.62,1.209-5.792-0.459-8.243
	c-7.691-11.296-26.464-42.172-30.025-61.665c7.729-1.448,22.477-3.592,36.218-5.362c3.358,11.913,9.061,24.849,18.752,34.6
	c-0.376,6.514-0.302,13.771,0.481,21.715c0.407,4.13,3.887,7.215,7.952,7.215c0.263,0,0.528-0.013,0.795-0.039
	c4.396-0.434,7.61-4.35,7.176-8.747c-0.765-7.753-0.759-14.736-0.309-20.875c0.327-1.072,0.422-2.196,0.291-3.294
	c1.006-9.729,3.085-17.06,4.724-21.633l25.393,6.349c2.392,0.597,4.922,0.061,6.864-1.456c1.94-1.515,3.075-3.842,3.075-6.305v-24
	c0-2.222-0.924-4.344-2.551-5.857c-2.59-2.409-5.423-4.51-8.418-6.342c-5.207-5.06-8.37-11.089-10.259-16.281
	c11.199,2.917,27.009,6.07,38.392,4.396C157.09,179.338,160,175.969,160,172v-12.629c1.746,1.807,3.453,3.585,5.142,5.346
	c9.489,9.89,17.684,18.432,27.264,25.922c2.625,2.054,6.249,2.264,9.094,0.527c2.845-1.736,4.316-5.054,3.692-8.328
	c-0.531-2.788,0.23-6.98,1.036-11.419c0.057-0.31,0.113-0.623,0.17-0.938c5.068,3.901,11.416,8.988,17.725,14.497
	c22.72,19.839,23.829,26.618,23.877,27.06c0.001,0.143,0.015,0.282,0.023,0.422c0.007,0.125,0.007,0.251,0.021,0.375
	c0.014,0.13,0.039,0.257,0.059,0.386c0.021,0.138,0.037,0.276,0.064,0.411c0.019,0.09,0.047,0.178,0.069,0.267
	c0.041,0.169,0.08,0.339,0.131,0.504c0.009,0.029,0.022,0.057,0.032,0.086c1.046,3.208,4.051,5.539,7.6,5.539
	c4.418,0,7.999-3.554,7.999-7.972c0.006-0.066,0.877-6.861,23.757-26.022c5.282-4.423,10.604-8.559,15.174-11.973
	c-0.427,3.087-0.945,5.945-1.485,8.778c-0.624,3.273,0.847,6.591,3.692,8.328c2.846,1.735,6.469,1.526,9.094-0.527
	c12.529-9.796,25.182-20.553,37.77-32.107V172c0,3.969,2.91,7.338,6.837,7.915c11.388,1.674,27.193-1.478,38.391-4.395
	c-1.889,5.194-5.052,11.222-10.257,16.28c-2.996,1.832-5.829,3.933-8.419,6.343C376.924,199.656,376,201.778,376,204v24
	c0,2.463,1.135,4.79,3.077,6.306s4.473,2.053,6.864,1.456l25.391-6.348c1.642,4.582,3.72,11.913,4.726,21.634
	c-0.131,1.097-0.036,2.22,0.291,3.291c0.451,6.139,0.456,13.123-0.309,20.876c-0.434,4.397,2.78,8.313,7.176,8.747
	c0.267,0.026,0.532,0.039,0.795,0.039c4.064,0,7.544-3.085,7.952-7.215c0.783-7.944,0.857-15.201,0.481-21.715
	c9.691-9.751,15.394-22.687,18.752-34.6c13.741,1.77,28.487,3.915,36.216,5.362c-3.564,19.475-22.334,50.363-30.024,61.667
	c-1.667,2.45-1.843,5.623-0.457,8.242S461.036,300,464,300h25.871l-16.73,27.885C471.251,331.032,471.748,335.061,474.343,337.657z"
	/>
</svg>